<?xml version="1.0" encoding="UTF-8" standalone="no"?>
<!-- Created with Inkscape (http://www.inkscape.org/) -->

<svg
   width="39.642635mm"
   height="51.499187mm"
   viewBox="0 0 39.642635 51.499187"
   version="1.1"
   id="svg1"
   xml:space="preserve"
   inkscape:version="1.4 (e7c3feb100, 2024-10-09)"
   sodipodi:docname="icon.svg"
   xmlns:inkscape="http://www.inkscape.org/namespaces/inkscape"
   xmlns:sodipodi="http://sodipodi.sourceforge.net/DTD/sodipodi-0.dtd"
   xmlns="http://www.w3.org/2000/svg"
   xmlns:svg="http://www.w3.org/2000/svg"><sodipodi:namedview
     id="namedview1"
     pagecolor="#ffffff"
     bordercolor="#000000"
     borderopacity="0.25"
     inkscape:showpageshadow="2"
     inkscape:pageopacity="0.0"
     inkscape:pagecheckerboard="0"
     inkscape:deskcolor="#d1d1d1"
     inkscape:document-units="mm"
     inkscape:zoom="2"
     inkscape:cx="86.25"
     inkscape:cy="131.25"
     inkscape:window-width="1680"
     inkscape:window-height="1022"
     inkscape:window-x="0"
     inkscape:window-y="0"
     inkscape:window-maximized="1"
     inkscape:current-layer="layer2" /><defs
     id="defs1" /><g
     inkscape:groupmode="layer"
     id="layer2"
     inkscape:label="Layer 2"
     transform="translate(-85.186577,-104.19811)"><path
       style="fill:#ffffff;stroke-width:0.4;stroke:#000000;stroke-opacity:1;stroke-dasharray:none;fill-opacity:1"
       d="m 106.20007,104.23041 -1.35616,-0.0323 c 0,0 -0.88796,0.40362 -1.03326,0.62964 -0.14531,0.22603 -0.4682,0.40362 -0.56507,0.75881 -0.0969,0.35518 -0.27446,1.0494 -0.16145,1.27543 0.11302,0.22603 0.45206,1.19471 0.74266,1.40459 0.29061,0.20988 -2.454,1.92123 -2.454,1.92123 l -2.989257,3.2649 -2.580029,4.61209 -0.867619,4.58925 -3.173663,1.98639 -3.105166,3.24216 -2.146218,3.72163 -0.844788,2.96818 -0.22832,0.68496 -0.251153,3.49331 0.502306,3.24216 0.981779,2.991 1.735241,3.01384 1.872234,2.19188 2.443033,2.19189 3.607474,1.96356 2.808349,1.05027 2.602857,0.20549 1.96356,-1.05028 -1.00461,-2.23754 -0.13699,-0.91329 0.0457,-2.05488 0.82196,-1.9864 -2.03206,-1.05027 -2.123387,-0.11416 -1.96356,-0.98178 -1.598247,-1.73524 -0.456642,-1.02745 -0.09133,-0.66213 -1.210101,-0.77629 -0.913283,-0.98178 -0.75346,-1.55258 -0.319651,-0.91329 v -1.8494 l 0.251153,-0.43381 0.04566,-1.39276 -0.547971,-0.82195 0.04566,-1.30143 0.66213,-1.46126 1.210104,-1.2101 1.96356,-1.41559 1.30143,-0.50231 0.890452,0.0457 0.502306,-0.95895 2.306047,-2.19188 1.62107,-0.95895 0.68497,-0.18266 1.02744,0.0228 0.91329,0.31964 0.84479,0.47948 2.30604,-0.0228 1.25576,0.47947 1.62108,0.91328 1.52975,1.57542 0.77629,1.48409 0.61647,1.2101 1.09594,0.15982 1.50692,0.93612 1.16444,1.87223 0.45664,1.05028 0.0685,2.19188 -0.34248,2.12339 -1.2786,1.91789 -1.41559,0.93612 -0.57081,2.32887 -1.1416,1.57542 -1.82657,0.70779 -2.32887,-0.0913 -3.33349,2.07773 c 0,0 -0.93612,1.25576 -1.2101,1.7124 -0.27399,0.45665 -0.18266,1.75808 -0.18266,1.75808 l 0.0457,1.34709 c 0,0 0.47947,1.89506 1.11877,2.07772 0.6393,0.18266 0.77629,0.77629 2.14622,1.43842 1.36992,0.66214 4.56642,-0.63929 4.56642,-0.63929 0,0 5.34271,-2.21472 5.43404,-2.99101 0.0913,-0.77629 2.07772,-0.15982 4.9089,-5.68519 2.83118,-5.52537 2.05489,-9.04152 2.05489,-9.04152 0,0 -0.43381,-5.22855 -1.68958,-6.59847 -1.25576,-1.36993 -1.1416,-2.51154 -3.94995,-5.1144 -2.80835,-2.60286 -3.72163,-2.69418 -3.72163,-2.69418 l 1.34709,-1.9179 2.37454,-1.68958 3.72163,-1.59824 1.3471,-1.50692 0.45664,-3.10517 c 0,0 -0.11416,-0.52514 -0.98178,-0.95895 -0.86762,-0.43381 -6.57565,-1.30143 -6.57565,-1.30143 l -0.68496,-1.89506 -1.43842,-0.68496 -6.3245,-1.36993 c 0,0 -0.38814,-1.05028 -0.61646,-1.71241 -0.22832,-0.66213 -1.79578,-0.77443 -1.79578,-0.77443 z"
       id="path1" /><path
       style="fill:#0000ff;stroke-width:0.15;stroke:#000000;stroke-opacity:1;stroke-dasharray:none"
       d="m 103.2696,124.77744 c 0,0 -2.51153,1.07311 -3.128,2.16905 -0.616464,1.09594 2.99101,-0.34248 4.15545,0.36532 1.16443,0.70779 1.16443,-0.137 1.39276,-0.0913 0.22832,0.0457 0.38814,-0.38815 2.19188,0.0228 1.80373,0.41098 2.83118,2.87685 2.83118,2.87685 l 0.29682,1.96356 0.89045,0.36531 c 0,0 0.70779,-1.57541 -0.0685,-2.83118 -0.77629,-1.25576 -1.05028,-2.00922 -1.05028,-2.00922 l -1.87223,-1.62108 -1.96356,-0.41098 -1.75807,-0.0685 z"
       id="path2" /><path
       style="fill:#0000ff;stroke-width:0.15;stroke:#000000;stroke-opacity:1;stroke-dasharray:none"
       d="m 108.37961,131.48272 h 0.77494 l -0.16144,-0.80724 -1.227,-1.48531 -1.21086,-0.33904 -1.56604,0.85567 -1.06555,-0.66193 -2.32484,0.0969 -1.21086,0.72652 -0.72651,1.19471 0.04843,0.33904 0.45206,-0.0969 1.09784,-0.71037 c 0,0 1.45302,-0.71037 2.97063,0.24217 1.5176,0.95254 0.25831,-2.38942 4.1492,0.64579 z"
       id="path3" /><path
       style="fill:#0000ff;stroke-width:0.15;stroke:#000000;stroke-opacity:1;stroke-dasharray:none"
       d="m 98.999515,128.80269 -0.904105,1.45303 c 0,0 -0.58121,1.32387 -0.193739,1.61447 0.387475,0.29061 -1.937366,0.22603 -2.163394,2.51858 -0.226026,2.29255 0.290607,2.29255 0.290607,2.29255 l -0.290607,0.96869 0.193738,1.32387 0.129157,0.67808 -0.387472,0.38747 -1.549895,-1.8405 -0.258315,-1.35616 0.452051,-2.32484 -0.742656,-1.64676 -0.03229,-0.9364 2.001946,-2.1311 z"
       id="path4" /><path
       style="fill:#0000ff;stroke-width:0.15;stroke:#000000;stroke-opacity:1;stroke-dasharray:none"
       d="m 102.90429,134.8464 0.84479,0.0457 1.32426,0.6393 1.68957,1.73524 -0.91328,0.79913 -2.44304,-0.0228 -1.73524,-0.93611 0.0685,-1.2101 z"
       id="path5" /><path
       style="fill:#0000ff;stroke-width:0.15;stroke:#000000;stroke-opacity:1;stroke-dasharray:none"
       d="m 101.00922,134.02445 1.09595,-0.68497 2.12338,-0.0913 1.59825,0.6393 1.75807,1.57542 0.0457,-1.64391 -1.05027,-1.59825 -1.09594,-0.0457 -1.00462,0.47948 -0.66213,-0.0685 -0.59363,-0.41098 h -1.3471 z"
       id="path6" /><path
       style="fill:#0000ff;stroke-width:0.15;stroke:#000000;stroke-opacity:1;stroke-dasharray:none"
       d="m 99.068495,133.20249 c 0,0.0913 0.04566,1.73524 0.04566,1.73524 l 0.730628,1.23293 0.0685,1.48409 0.776297,1.1416 1.48408,0.86763 1.98639,0.25115 -0.84478,0.43381 -1.78091,0.0457 -1.2101,-0.20549 -2.831179,-1.64391 0.06849,-1.07311 0.433811,-0.54797 -0.799124,-1.50692 0.09133,-0.98178 z"
       id="path7" /><path
       style="fill:#0000ff;stroke-width:0.15;stroke:#000000;stroke-opacity:1;stroke-dasharray:none"
       d="m 109.32011,133.27099 0.25115,3.01383 -0.70779,1.64391 -1.50692,1.3471 c 0,0 -1.50692,2.19188 -1.98639,1.96356 -0.47948,-0.22832 -0.0228,1.11877 2.37454,0.0913 2.39737,-1.02745 3.88145,-3.44765 3.88145,-3.44765 0,0 0.47948,-2.05489 0.22832,-2.07772 -0.25115,-0.0228 -0.61646,-2.21472 -2.53436,-2.53436 z"
       id="path8" /><path
       style="fill:#0000ff;stroke-width:0.15;stroke:#000000;stroke-opacity:1;stroke-dasharray:none"
       d="m 102.55136,142.17053 1.61447,1.00098 1.90508,0.2906 2.38942,-0.48434 c 0,0 1.61447,-0.71037 0.6135,0.0646 -1.00097,0.77495 -4.52053,2.454 -4.52053,2.454 l -1.42073,-0.32289 -1.13013,-0.83953 -2.292558,0.0646 -2.518577,-2.03424 0.09687,-1.5176 2.873765,1.227 z"
       id="path9" /><path
       style="fill:#0000ff;stroke-width:0.15;stroke:#000000;stroke-opacity:1;stroke-dasharray:none"
       d="m 110.49457,141.6539 2.42171,-2.64773 0.77494,-2.38942 -0.71037,-2.35714 0.83953,-1.19471 0.0969,-1.58218 0.87181,-0.0646 1.09785,1.25929 0.19373,4.39137 -1.5176,1.87279 -0.87182,0.45205 -1.13013,3.22895 -1.67905,0.64579 z"
       id="path10" /></g></svg>
